<?xml version="1.0" encoding="utf-8"?>
<!-- Generator: Adobe Illustrator 22.0.0, SVG Export Plug-In . SVG Version: 6.00 Build 0)  -->
<svg version="1.1" id="Layer_1" xmlns="http://www.w3.org/2000/svg" xmlns:xlink="http://www.w3.org/1999/xlink" x="0px" y="0px"
	 viewBox="0 0 1200 1200" enable-background="new 0 0 1200 1200" xml:space="preserve">
<g>
	<path d="M87.757,639.932c0.215-2.546,0.431-5.092,0.645-7.638c1.819-21.66,3.59-43.325,5.487-64.978
		c0.478-5.461,1.035-10.955,2.15-16.31c0.898-4.311,2.661-8.446,4.094-12.641c7.754-22.691,15.032-45.561,23.459-68
		c5.877-15.651,12.837-30.956,20.293-45.928c15.787-31.703,43.665-56.571,60.037-88.687c10.582,14.845-2.785,34.389-14.115,48.672
		c-24.802,31.268-42.436,68.187-51.168,107.13c20.345-45.118,50.081-85.976,86.757-119.209c2.338,3.19,4.675,6.38,7.013,9.57
		c-30.212,31.468-54.502,68.601-71.23,108.89c23.128-35.437,54.333-64.729,85.223-93.651c4.373,3.744,8.746,7.488,13.118,11.232
		c-22.51,24.151-42.906,50.272-60.878,77.965c23.416-23.746,46.832-47.491,70.248-71.237c4.373,3.062,8.747,6.124,13.12,9.186
		c-15.896,18.838-30.607,38.675-44.018,59.355c18.822-17.456,37.644-34.911,56.466-52.367c3.516,1.685,7.032,3.37,10.547,5.055
		c-12.504,13.522-25.764,28.845-26.003,47.261c6.643-24.865,33.869-42.315,59.237-37.968c8.209,1.407,17.94,4.353,23.889-1.476
		c-54.199-10.974-102.595-47.698-127.752-96.944c-9.339-18.281-15.663-39.269-11.157-59.297c6.282-27.92,31.79-47.239,57.566-59.673
		c34.912-16.84,74.454-25.735,112.792-20.019c18.487,2.756,36.533,9.115,52.533,18.804c17.558,10.632,28.013,28.464,43.16,39.673
		c2.022-5.952-0.082-10.866-3.891-16.084c-38.112-52.209-106.32-80.671-170.238-71.037C396.867,109.5,508.435,75.456,615.366,87.971
		c107.363,12.566,206.322,71.243,270.142,158.075c-19.704-10.178-33.854-28.247-49.299-44.162
		c-34.555-35.605-78.3-62.216-125.806-76.532c54.371,26.765,102.627,65.861,140.09,113.495
		c-12.493,1.503-24.195-6.499-32.777-15.702c-31.818-34.119-64.794-62.765-108.429-81.326
		c40.443,24.003,76.231,55.815,104.81,93.165c-39.11,2.295-59.808-52.593-98.555-58.38c23.014,12.989,43.167,31.015,58.633,52.443
		c-14.316-1.141-28.631-2.282-42.947-3.424c48.259,21.207,101.139,29.312,151.242,45.691
		c49.068,16.042,99.802,42.877,125.021,90.099c1.409,2.638-63.895,12.606-69.304,13.335c-22.875,3.085-46.967,7.934-64.684,23.914
		c-16.758,15.116-17.563,26.648-43.921,20.53c-43.22-10.033-88.977-7.906-131.382,4.916c-45.88,13.873-77.359,45.926-119.488,65.633
		c-83.57,39.093-193.412,5.661-266.21,62.344c-55.913,43.537-75.647,133.808-73.025,201.497c0.546,14.095,3.803,27.626,8.352,40.899
		c0.601,1.754,1.162,3.52,1.859,5.634c1.559-1.173,2.918-2.205,4.286-3.224c33.66-25.056,69.948-45.423,109.166-60.362
		c19.383-7.384,39.625-11.018,60.405-11.516c6.311-0.151,12.615-0.581,18.923-0.877c3.952-0.186,6.683,0.798,8.916,2.983
		c-6.394,9.888-13.189,19.435-18.979,29.557c-10.481,18.325-20.193,37.08-26.867,57.21c-1.493,4.504-2.51,9.176-3.545,13.815
		c-0.347,1.555,0,3.252-0.092,4.878c-0.261,4.619-0.619,9.233-0.876,13.853c-0.573,10.303-2.323,20.724-1.353,30.883
		c1.242,13.004,4.697,25.796,7.177,38.684c0.547,2.841,1.005,5.7,1.597,9.086c2.226-1.832,4.276-3.458,6.259-5.162
		c24.535-21.077,50.834-39.542,79.843-54.006c21.834-10.887,44.805-18.149,68.912-21.925c10.116-1.585,20.177-3.516,30.264-5.285
		c4.153-0.729,8.039-0.251,11.692,2.761c-1.319,1.71-2.553,3.462-3.939,5.082c-10.284,12.025-16.495,26.448-24.006,40.14
		c-8.245,15.029-13.659,30.943-17.73,47.497c-3.611,14.685-4.809,34.163,1.465,48.095c9.042-9.393,12.745-32.072,20.041-45.096
		c8.75-15.62,19.835-29.869,32.363-42.631c25.493-25.97,57.157-45.856,90.954-59.131c66.739-26.216,139.909-29.637,211.544-32.746
		c-39.154-3.295-78.307-6.59-117.461-9.885c68.173-2.175,140.126-5.472,197.496-42.363c-56.909,10.886-115.292,14.033-173.041,9.327
		c58.036-3.767,115.612-14.582,171.06-32.13c22.113-6.998,48.02-20.714,47.396-43.9c-66.744,32.226-142.917,44.614-216.433,35.198
		c79.699-1.055,158.874-27.442,223.273-74.409c-53.823,1.59-98.322,44.726-151.576,52.691
		c-53.282,7.968-104.86-20.336-149.344-50.727c67.675,33.427,151.302,32.421,218.153-2.626
		c-44.405,3.458-89.294,0.649-132.921-8.318c43.419,2.804,87.232-0.564,129.712-9.971c17.844-3.952,39.018-13.064,40.156-31.305
		c-35.326,10.837-73.708,11.51-109.393,1.918c30.373-3.575,60.573-8.621,90.459-15.116c9.331-2.028,19.025-4.39,26.285-10.592
		s11.134-17.454,6.103-25.569c-35.646,5.596-72.266,4.929-107.685-1.96c29.912,1.484,60.003-0.67,89.399-6.4
		c11.501-2.242,26.025-13.606,18.059-22.199c-2.919-3.15-7.654-3.616-11.94-3.88c-29.721-1.83-59.441-3.66-89.162-5.49
		c28.236,1.093,56.647-2.447,83.752-10.437c-44.864-15.955-87.498-38.164-126.284-65.785c26.331-31.239,69.824-40.555,109.993-48.01
		c26.285-4.878,56.571-8.783,76.968,8.499c8.874,7.519,14.48,18.094,19.874,28.399c11.583,22.129,23.275,44.541,29.116,68.825
		c9.145,38.022,2.9,79.515-17.032,113.16c-3.997,6.746-8.551,13.256-11.204,20.635c-3.026,8.415-3.421,17.502-4.369,26.394
		c-10.166,95.421-95.459,177.206-191.223,183.357c-8.591,0.552-20.742,5.935-16.729,13.551
		c-62.253-1.254-124.758,12.692-180.573,40.29c58.855-20.729,122.312-28.275,184.387-21.927c0.635,7.853,1.27,15.706,1.905,23.559
		c-57.958-8.127-117.84-2.171-173.061,17.214c46.57-9.216,94.287-12.621,141.694-10.11c9.367,0.496,19.372,1.469,26.639,7.4
		c7.266,5.931,9.623,18.63,2.215,24.382c-49.817-7.501-101.149-4.795-149.902,7.902c49.555-7.403,100.492-5.451,149.335,5.723
		c-1.768,8.281-3.535,16.563-5.303,24.844c-41.427-10.723-85.027-12.979-127.34-6.59c36.73-0.984,73.595,3.195,109.172,12.376
		c5.063,1.306,10.597,3.081,13.229,7.599c4.518,7.758-3.407,17.835-12.248,19.396c-8.841,1.561-17.617-2.216-26.193-4.869
		c-22.881-7.077-48.129-6.242-70.493,2.331c32.804-4.859,67.123,1.121,96.351,16.787c-32.964,49.492-69.428,101.861-125.017,122.979
		c-17.573,6.676-36.272,9.842-54.925,12.172c-136.641,17.064-278.452-10.068-399.143-76.367c4.287,2.358,23.174-0.006,30.471,2.546
		c13.735,4.802,26.814,13.038,40.166,18.911c20.412,8.979,41.631,15.582,63.679,19.332c10.093,1.717,20.171,3.519,30.249,5.321
		c4.366,0.781,8.693,1.843,13.087,2.354c1.005,0.117,2.869-1.319,3.186-2.384c0.568-1.909-0.986-2.946-2.855-3.216
		c-1.839-0.266-3.755-0.255-5.516-0.775c-14.273-4.215-28.672-8.079-42.739-12.904c-26.94-9.24-52.591-21.607-78.459-33.421
		c-0.412-0.188-0.764-0.506-1.596-1.07c5.016-0.768,9.462-1.514,13.928-2.115c4.615-0.621,8.908-1.614,13.686,1.107
		c20.338,11.582,41.733,20.492,65.097,24.135c9.595,1.496,19.059,3.824,28.617,5.581c1.074,0.197,2.379-0.865,3.576-1.343
		c-0.879-0.797-1.63-1.979-2.66-2.325c-4.696-1.574-9.552-2.69-14.203-4.377c-16.805-6.093-33.609-12.196-50.285-18.627
		c-5.788-2.232-11.202-5.433-16.787-8.191c7.767-2.177,15.351-3.602,22.953-4.922c0.692-0.12,1.539,0.344,2.248,0.678
		c2.611,1.23,5.08,2.898,7.807,3.724c15.916,4.824,31.888,9.465,47.849,14.142c2.02,0.592,3.629-0.393,3.315-2.328
		c-0.185-1.144-1.935-2.5-3.25-2.923c-12.101-3.896-24.277-7.561-36.395-11.404c-3.27-1.037-6.42-2.451-10.231-3.927
		c1.539-0.392,2.33-0.651,3.142-0.792c23.755-4.097,46.758-10.689,68.7-20.766c6.673-3.064,13.326-6.18,19.869-9.505
		c0.868-0.441,1.034-2.267,1.524-3.452c-1.243-0.312-2.531-0.985-3.717-0.838c-1.26,0.157-2.421,1.094-3.628,1.687
		c-24.506,12.035-50.084,20.716-77.299,23.845c-27.968,3.215-55.988,5.972-83.972,9.046c-16.473,1.81-32.802-0.132-48.764-3.371
		c-15.967-3.24-31.559-8.464-46.247-15.868c-0.9-0.454-1.847-1.013-2.479-1.768c-11.697-13.992-24.142-27.45-34.775-42.213
		c-9.459-13.132-16.921-27.706-25.229-41.664c-17.385-29.21-30.729-60.24-41.179-92.519c-8.998-27.794-14.916-56.374-20.768-84.947
		c-5.743-28.042-9.358-56.358-10.044-85.011c-0.044-1.824-0.398-3.64-0.608-5.459C87.757,664.403,87.757,652.168,87.757,639.932z
		 M376.778,381.037c-3.787,0-7.294-0.026-10.801,0.004c-17.001,0.148-30.605-7.693-42.923-18.4
		c-2.836-2.465-2.854-6.595-0.538-9.218c2.429-2.75,6.368-2.914,9.475-0.601c1.72,1.281,3.543,2.627,5.537,3.305
		c13.86,4.712,27.825,4.39,41.904,0.594c0.934-6.17,1.851-12.235,2.79-18.439c-0.858,0-1.261-0.038-1.655,0.005
		c-12.413,1.355-24.808,1.509-37.125-0.84c-5.055-0.964-10.121-1.998-15.046-3.459c-2.778-0.824-3.608-3.245-2.655-5.415
		c0.96-2.186,3.052-2.775,5.81-1.809c1.742,0.61,3.537,1.286,5.35,1.442c14.04,1.208,27.673-1.147,41.044-5.18
		c8.404-2.535,8.325-2.708,11.056-11.236c3.408-10.638,6.717-21.34,12.793-30.849c1.51-2.363,1.215-3.97-0.748-5.615
		c-1.032-0.865-1.985-1.851-3.106-2.578c-13.31-8.63-27.198-15.489-43.457-16.855c-9.94-0.835-18.742,1.12-27.281,6.13
		c-9.424,5.53-16.918,12.973-23.107,21.766c-6.482,9.208-9.344,19.672-8.214,30.845c0.724,7.158,2.24,14.294,4.047,21.274
		c4.962,19.174,16.236,34.26,32.434,45.129c7.515,5.043,16.54,7.946,25.088,11.287c3.469,1.356,7.474,1.559,11.266,1.808
		c4.537,0.299,8.267-3.219,8.34-7.441C377.088,384.946,376.892,383.198,376.778,381.037z M1044.81,509.764
		c1.8,0,3.752,0.052,5.701-0.014c2.068-0.071,4.13-0.349,6.197-0.368c4.107-0.036,7.124,2.971,7.123,6.97
		c0,3.438-2.168,6.238-5.71,6.636c-4.388,0.494-8.824,0.567-13.203,0.819c0,4.917,0,9.725,0,15.254
		c3.815-0.616,7.343-1.108,10.839-1.768c4.763-0.899,8.214,0.933,9.168,5.013c0.865,3.701-1.689,7.187-6.239,8.04
		c-4.944,0.927-9.944,1.554-14.79,2.293c-1.943,9.723-3.894,19.492-6.009,30.073c6.961-1.187,13.664-2.292,20.351-3.485
		c3.41-0.608,5.661,0.392,6.208,2.95c0.585,2.735-1.051,4.66-4.548,5.424c-8.281,1.809-16.551,3.702-24.395,2.629
		c-5.759,11.474-11.319,22.552-17.378,34.625c7.557-3.283,14.626-5.905,21.267-9.353c8.112-4.212,15.407-9.576,21.161-16.962
		c6.678-8.574,11.929-17.915,16.243-27.812c9.811-22.509,14.214-45.832,9.49-70.262c-2.386-12.341-6.002-24.334-13.693-34.626
		c-1.24-1.659-2.828-3.059-4.241-4.564c-3.627,7.504-6.992,14.491-10.38,21.467C1053.627,491.688,1049.263,500.625,1044.81,509.764z
		 M553.541,317.273c-5.895,0.64-10.377,0.802-14.718,1.668c-7.578,1.513-15.08,3.413-22.576,5.302
		c-0.695,0.175-1.119,1.43-1.668,2.183c0.713,0.462,1.386,1.02,2.156,1.349c0.427,0.182,1.02,0.002,1.535-0.054
		c5.755-0.627,11.555-2.05,17.253-1.717c9.353,0.546,18.65,2.161,27.942,3.526c1.11,0.163,2.304,1.393,3.005,2.434
		c3.573,5.305,6.384,11.258,10.596,15.97c9.697,10.85,30.219,11.532,42.51,1.876c2.2-1.728,3.96-2.072,6.648-1.116
		c13.523,4.807,27.129,9.379,40.734,13.949c0.903,0.303,2.04-0.091,3.068-0.161c-0.44-0.958-0.631-2.226-1.366-2.818
		c-2.41-1.94-4.922-3.793-7.565-5.398c-20.086-12.196-41.645-21.094-64.057-27.906c-7.487-2.276-15.269-3.61-22.953-5.197
		C566.814,319.661,559.496,318.392,553.541,317.273z"/>
	<path d="M364.948,122.785c-0.77-13.856,3.206-26.55,7.899-39.075c2.038-5.44,5.42-9.901,10.045-13.517
		c6.838-5.347,14.235-9.595,22.528-12.188c7.274-2.275,14.449-5.251,21.905-6.484c21.426-3.543,42.233-0.92,62.119,8.148
		c4.78,2.18,9.69,4.075,14.605,6.128C455.795,80.735,409.421,99.536,364.948,122.785z"/>
</g>
</svg>
